<svg width="21" height="20" viewBox="0 0 21 20" fill="none" xmlns="http://www.w3.org/2000/svg">
<circle cx="10.5004" cy="10" r="10" fill="#FFB400"/>
<path d="M10.3924 13.538C10.299 13.538 10.2197 13.5053 10.1544 13.44C10.089 13.3747 10.0564 13.2953 10.0564 13.202V10.472H7.36837C7.27503 10.472 7.1957 10.4393 7.13037 10.374C7.06503 10.3087 7.03237 10.2293 7.03237 10.136V9.394C7.03237 9.29133 7.06503 9.212 7.13037 9.156C7.1957 9.09067 7.27503 9.058 7.36837 9.058H10.0564V6.398C10.0564 6.30467 10.089 6.22533 10.1544 6.16C10.2197 6.09467 10.299 6.062 10.3924 6.062H11.2044C11.307 6.062 11.3864 6.09467 11.4424 6.16C11.5077 6.22533 11.5404 6.30467 11.5404 6.398V9.058H14.2284C14.3217 9.058 14.401 9.09067 14.4664 9.156C14.5317 9.212 14.5644 9.29133 14.5644 9.394V10.136C14.5644 10.2293 14.5317 10.3087 14.4664 10.374C14.401 10.4393 14.3217 10.472 14.2284 10.472H11.5404V13.202C11.5404 13.2953 11.5077 13.3747 11.4424 13.44C11.3864 13.5053 11.307 13.538 11.2044 13.538H10.3924Z" fill="white"/>
</svg>
